<svg width="36" height="36" viewBox="0 0 36 36" fill="none" xmlns="http://www.w3.org/2000/svg">
<path d="M17.82 21.7634H17.8987C19.5862 21.8084 20.9362 23.1809 20.9362 24.8684C20.9362 26.3084 19.9575 27.5121 18.63 27.8721V29.1321C18.63 29.5821 18.27 29.9421 17.82 29.9421C17.37 29.9421 17.01 29.5821 17.01 29.1321V27.8721C16.349 27.6944 15.7649 27.3039 15.348 26.7609C14.9312 26.218 14.7047 25.5529 14.7037 24.8684C14.7037 24.4184 15.0637 24.0584 15.5137 24.0584C15.9637 24.0584 16.3237 24.4184 16.3237 24.8684C16.3237 25.7009 16.9875 26.3646 17.8087 26.3646C18.63 26.3646 19.305 25.6896 19.305 24.8684C19.305 24.0471 18.63 23.3721 17.8087 23.3721H17.73C16.9207 23.3501 16.1518 23.0135 15.5867 22.4337C15.0217 21.854 14.7049 21.0767 14.7037 20.2671C14.7037 18.8271 15.6825 17.6234 17.01 17.2634V16.0034C17.01 15.5534 17.37 15.1934 17.82 15.1934C18.27 15.1934 18.63 15.5534 18.63 16.0034V17.2634C19.9575 17.6234 20.9362 18.8271 20.9362 20.2671C20.9362 20.7171 20.5762 21.0771 20.1262 21.0771C19.6762 21.0771 19.3162 20.7171 19.3162 20.2671C19.3162 19.4459 18.6412 18.7709 17.82 18.7709C16.9987 18.7709 16.3237 19.4459 16.3237 20.2671C16.3237 21.0884 16.9987 21.7634 17.82 21.7634Z" fill="white"/>
<path d="M11.8485 5.73722L14.9828 9.40472L14.6441 9.78272C8.19338 11.2295 3.375 16.9906 3.375 23.8778C3.375 29.9326 8.289 34.8466 14.3438 34.8466H21.285C27.3398 34.8466 32.2538 29.9337 32.2538 23.879C32.265 16.9906 27.4466 11.2295 20.9959 9.78272C21.0221 9.54499 20.9791 9.30474 20.8721 9.09085L23.5384 6.03872L23.7105 5.77322C23.9115 5.33484 23.9629 4.84257 23.8568 4.37212C23.7508 3.90167 23.4931 3.47909 23.1234 3.16938C22.7538 2.85966 22.2926 2.67996 21.8108 2.65791C21.3291 2.63586 20.8534 2.77269 20.457 3.04735L19.5086 1.92235C19.2959 1.68427 19.0354 1.4937 18.7441 1.36305C18.4527 1.2324 18.1372 1.1646 17.8179 1.16407C17.4986 1.16353 17.1828 1.23029 16.8911 1.35997C16.5993 1.48965 16.3382 1.67936 16.1246 1.91672L15.1313 3.02597C14.7359 2.7456 14.2591 2.60332 13.7748 2.62114C13.2904 2.63895 12.8254 2.81587 12.4517 3.12453C12.0779 3.43318 11.8163 3.85638 11.7073 4.32866C11.5983 4.80094 11.6479 5.29598 11.8485 5.73722ZM16.1224 7.29535L14.2144 5.09035C14.6576 5.30394 15.1592 5.36459 15.6406 5.26281C16.122 5.16103 16.5561 4.90257 16.875 4.52785L17.775 3.3601L18.774 4.5436C19.0855 4.90582 19.5057 5.1577 19.9719 5.2617C20.4382 5.3657 20.9256 5.31625 21.3615 5.12072L19.4625 7.29535H16.1224ZM5.625 23.8778C5.625 17.1413 11.0835 11.6828 17.82 11.6828C24.5565 11.6828 30.015 17.1413 30.0038 23.8756V23.8778C30.0029 26.1899 29.084 28.4071 27.4491 30.0419C25.8142 31.6768 23.5971 32.5957 21.285 32.5966H14.3438C12.0317 32.5957 9.81454 31.6768 8.17965 30.0419C6.54476 28.4071 5.62589 26.1899 5.625 23.8778Z" fill="white"/>
</svg>
