<svg width="25" height="24" viewBox="0 0 25 24" fill="none" xmlns="http://www.w3.org/2000/svg">
<path d="M19.92 11.75H16.5C16.09 11.75 15.75 11.41 15.75 11V4.01C15.75 3.27 16.04 2.58 16.56 2.06C17.08 1.54 17.77 1.25 18.51 1.25H18.52C19.77 1.26 20.95 1.75 21.85 2.64C22.75 3.55 23.24 4.75 23.24 6V8.42C23.25 10.41 21.91 11.75 19.92 11.75ZM17.25 10.25H19.92C21.08 10.25 21.75 9.58 21.75 8.42V6C21.75 5.14 21.41 4.32 20.8 3.7C20.19 3.1 19.37 2.76 18.52 2.75C18.52 2.75 18.52 2.75 18.51 2.75C18.18 2.75 17.86 2.88 17.62 3.12C17.38 3.36 17.25 3.67 17.25 4.01V10.25Z" fill="#7D8998"/>
<path d="M9.5 23.33C9.03 23.33 8.59 23.15 8.26 22.81L6.6 21.14C6.51 21.05 6.37 21.04 6.27 21.12L4.55 22.4C4.02 22.8 3.32 22.87 2.72 22.57C2.12 22.27 1.75 21.67 1.75 21V6C1.75 2.98 3.48 1.25 6.5 1.25H18.5C18.91 1.25 19.25 1.59 19.25 2C19.25 2.41 18.91 2.75 18.5 2.75C17.81 2.75 17.25 3.31 17.25 4V21C17.25 21.67 16.88 22.27 16.28 22.57C15.68 22.87 14.98 22.81 14.45 22.41L12.74 21.13C12.64 21.05 12.5 21.07 12.42 21.15L10.74 22.83C10.41 23.15 9.97 23.33 9.5 23.33ZM6.41 19.57C6.87 19.57 7.32 19.74 7.66 20.09L9.32 21.76C9.38 21.82 9.46 21.83 9.5 21.83C9.54 21.83 9.62 21.82 9.68 21.76L11.36 20.08C11.98 19.46 12.96 19.4 13.65 19.93L15.35 21.2C15.46 21.28 15.56 21.25 15.61 21.22C15.66 21.19 15.75 21.13 15.75 21V4C15.75 3.55 15.86 3.12 16.05 2.75H6.5C4.28 2.75 3.25 3.78 3.25 6V21C3.25 21.14 3.34 21.2 3.39 21.23C3.45 21.26 3.55 21.28 3.65 21.2L5.36 19.92C5.67 19.69 6.04 19.57 6.41 19.57Z" fill="#7D8998"/>
<path d="M12.5 13.7598H9.5C9.09 13.7598 8.75 13.4198 8.75 13.0098C8.75 12.5998 9.09 12.2598 9.5 12.2598H12.5C12.91 12.2598 13.25 12.5998 13.25 13.0098C13.25 13.4198 12.91 13.7598 12.5 13.7598Z" fill="#7D8998"/>
<path d="M12.5 9.75977H9.5C9.09 9.75977 8.75 9.41977 8.75 9.00977C8.75 8.59977 9.09 8.25977 9.5 8.25977H12.5C12.91 8.25977 13.25 8.59977 13.25 9.00977C13.25 9.41977 12.91 9.75977 12.5 9.75977Z" fill="#7D8998"/>
<path d="M6.47021 10.0098C5.92021 10.0098 5.47021 9.55977 5.47021 9.00977C5.47021 8.45977 5.92021 8.00977 6.47021 8.00977C7.02021 8.00977 7.47021 8.45977 7.47021 9.00977C7.47021 9.55977 7.02021 10.0098 6.47021 10.0098Z" fill="#7D8998"/>
<path d="M6.47021 14.0098C5.92021 14.0098 5.47021 13.5598 5.47021 13.0098C5.47021 12.4598 5.92021 12.0098 6.47021 12.0098C7.02021 12.0098 7.47021 12.4598 7.47021 13.0098C7.47021 13.5598 7.02021 14.0098 6.47021 14.0098Z" fill="#7D8998"/>
</svg>
